<?xml version="1.0" standalone="no"?>
<!DOCTYPE svg PUBLIC "-//W3C//DTD SVG 20010904//EN"
 "http://www.w3.org/TR/2001/REC-SVG-20010904/DTD/svg10.dtd">
<svg version="1.0" xmlns="http://www.w3.org/2000/svg"
 width="260.000000pt" height="260.000000pt" viewBox="0 0 260.000000 260.000000"
 preserveAspectRatio="xMidYMid meet">
<metadata>
Created by potrace 1.14, written by Peter Selinger 2001-2017
</metadata>
<g transform="translate(0.000000,260.000000) scale(0.100000,-0.100000)"
fill="#000000" stroke="none">
<path d="M465 2450 c-121 -16 -235 -66 -327 -142 -57 -48 -61 -61 -13 -52 43
8 45 -5 10 -67 -39 -71 -55 -160 -61 -344 -7 -192 0 -235 62 -403 47 -125 112
-242 271 -483 143 -216 206 -320 255 -424 31 -66 33 -76 33 -180 0 -100 -2
-115 -28 -167 -33 -67 -98 -138 -153 -167 l-39 -20 381 -1 381 0 25 48 c14 26
31 64 38 85 l12 37 555 0 c623 0 601 -2 651 73 l27 41 0 362 0 362 -31 39
c-46 58 -84 73 -186 73 l-86 0 -21 -35 -20 -35 105 0 106 0 34 -34 35 -35 -3
-345 -3 -346 -28 -27 -27 -28 -713 -2 c-767 -3 -740 -5 -781 50 -20 27 -21 42
-24 325 -4 345 -1 375 38 414 l28 28 385 0 385 0 -11 35 -10 35 -316 0 c-310
0 -316 0 -329 21 -7 12 -11 23 -8 27 7 6 370 20 549 21 l118 1 14 -34 c21 -51
85 -297 85 -328 0 -16 6 -28 13 -28 27 0 179 115 253 192 124 130 173 254 160
406 -12 142 -92 310 -209 438 -65 71 -164 127 -252 143 -61 12 -213 16 -222 7
-3 -3 33 -6 80 -6 48 0 87 -3 87 -6 0 -3 -12 -21 -26 -39 -64 -84 -91 -227
-74 -387 9 -86 48 -276 67 -324 6 -16 -62 -21 -438 -33 -330 -11 -367 -7 -482
50 -244 123 -427 366 -427 569 0 100 52 213 133 287 108 99 208 144 322 146
125 1 247 -53 369 -164 33 -31 72 -62 85 -69 14 -7 66 -14 115 -16 64 -2 77
-1 45 4 -55 9 -70 20 -112 81 -45 67 -120 156 -198 237 l-69 72 -104 26 c-171
42 -335 55 -481 36z"/>
<path d="M685 1995 c-95 -34 -156 -146 -134 -245 29 -132 174 -206 294 -151
47 22 99 74 114 114 16 42 13 134 -5 173 -47 98 -164 146 -269 109z"/>
<path d="M1493 1993 c9 -2 23 -2 30 0 6 3 -1 5 -18 5 -16 0 -22 -2 -12 -5z"/>
<path d="M1183 874 c-3 -9 -2 -23 3 -32 5 -8 75 -52 154 -98 80 -46 144 -87
143 -91 -2 -5 -30 -41 -63 -81 -64 -76 -75 -114 -35 -120 14 -2 41 22 93 83
l74 85 69 -37 69 -38 69 37 69 38 72 -86 c55 -64 78 -84 94 -82 42 6 31 43
-40 123 -36 42 -62 80 -58 85 5 4 72 44 149 88 77 45 144 87 149 95 13 20 0
47 -22 47 -10 0 -123 -61 -251 -135 l-232 -134 -233 134 c-128 74 -240 135
-250 135 -9 0 -19 -7 -23 -16z"/>
</g>
</svg>
